#N canvas 2256 144 1920 990 12;
#X floatatom 27 439 5 0 0 0 - - - 0;
#X floatatom 83 439 5 0 0 0 - - - 0;
#X floatatom 63 395 6 0 0 0 - - - 0;
#X obj 190 163 tgl 35 0 empty empty empty 0 -6 0 8 #14e814 #000000
#000000 0 25;
#X floatatom 571 340 12 0 0 1 value - - 0;
#X symbolatom 531 356 15 0 0 1 event_code - - 0;
#X symbolatom 492 372 15 0 0 1 event_type - - 0;
#X text 274 332 outlet message format:;
#X floatatom 138 343 5 0 0 1 ev_syn - - 0;
#X obj 111 342 +;
#X msg 111 322 1;
#X msg 374 140 close;
#X msg 374 119 refresh;
#X text 422 533 released under the GNU GPL;
#X obj 16 291 route key rel abs syn;
#X obj 9 502 tgl 25 0 empty empty empty 0 -6 0 8 #bcbcbc #000000 #000000
0 1;
#X floatatom 140 439 5 0 0 0 - - - 0;
#X obj 421 394 route abs_hat0x abs_hat0y abs_hat1x abs_hat1y;
#X floatatom 421 416 7 0 0 0 - - - 0;
#X msg 374 161 print;
#X obj 304 250 hid 0;
#X text 9 212 Any non-zero value starts polling \,;
#X text 8 225 0 stops the polling. If the number;
#X text 9 238 is greater than 1 \, then the poll;
#X text 9 251 delay is set to that number.;
#X obj 27 419 route rel_x rel_y rel_z rel_wheel;
#X floatatom 196 439 5 0 0 0 - - - 0;
#X obj 492 321 unpack s s f;
#X text 298 346 event_type event_code value;
#X obj 63 374 route abs_x abs_y abs_z abs_rx abs_ry abs_rz abs_throttle
;
#X obj 421 432 tgl 15 0 empty empty empty 0 -6 0 8 #fcfcfc #000000
#000000 0 -1;
#X floatatom 498 416 7 0 0 0 - - - 0;
#X obj 498 432 tgl 15 0 empty empty empty 0 -6 0 8 #fcfcfc #000000
#000000 0 1;
#X floatatom 576 416 7 0 0 0 - - - 0;
#X obj 576 432 tgl 15 0 empty empty empty 0 -6 0 8 #fcfcfc #000000
#000000 0 1;
#X floatatom 653 416 7 0 0 0 - - - 0;
#X obj 653 432 tgl 15 0 empty empty empty 0 -6 0 8 #fcfcfc #000000
#000000 0 1;
#X floatatom 113 395 6 0 0 0 - - - 0;
#X floatatom 163 395 6 0 0 0 - - - 0;
#X floatatom 213 395 6 0 0 0 - - - 0;
#X floatatom 263 395 6 0 0 0 - - - 0;
#X floatatom 313 395 6 0 0 0 - - - 0;
#X floatatom 363 395 6 0 0 0 - - - 0;
#X obj 39 502 tgl 25 0 empty empty empty 0 -6 0 8 #bcbcbc #000000 #000000
0 1;
#X obj 69 502 tgl 25 0 empty empty empty 0 -6 0 8 #bcbcbc #000000 #000000
0 1;
#X obj 99 502 tgl 25 0 empty empty empty 0 -6 0 8 #bcbcbc #000000 #000000
0 1;
#X obj 129 502 tgl 25 0 empty empty empty 0 -6 0 8 #bcbcbc #000000
#000000 0 1;
#X obj 159 502 tgl 25 0 empty empty empty 0 -6 0 8 #bcbcbc #000000
#000000 0 1;
#X obj 189 502 tgl 25 0 empty empty empty 0 -6 0 8 #bcbcbc #000000
#000000 0 1;
#X obj 219 502 tgl 25 0 empty empty empty 0 -6 0 8 #bcbcbc #000000
#000000 0 1;
#X obj 249 502 tgl 25 0 empty empty empty 0 -6 0 8 #bcbcbc #000000
#000000 0 1;
#X obj 279 502 tgl 25 0 empty empty empty 0 -6 0 8 #bcbcbc #000000
#000000 0 1;
#X obj 309 502 tgl 25 0 empty empty empty 0 -6 0 8 #bcbcbc #000000
#000000 0 1;
#X obj 339 502 tgl 25 0 empty empty empty 0 -6 0 8 #bcbcbc #000000
#000000 0 1;
#X obj 369 502 tgl 25 0 empty empty empty 0 -6 0 8 #bcbcbc #000000
#000000 0 1;
#X obj 399 502 tgl 25 0 empty empty empty 0 -6 0 8 #bcbcbc #000000
#000000 0 1;
#X obj 9 460 route btn_0 btn_1 btn_2 btn_3 btn_4 btn_5 btn_6 btn_7
btn_8 btn_9 btn_10 btn_11 btn_12 btn_13 btn_14 btn_15;
#X obj 429 502 tgl 25 0 empty empty empty 0 -6 0 8 #bcbcbc #000000
#000000 0 1;
#X obj 459 502 tgl 25 0 empty empty empty 0 -6 0 8 #bcbcbc #000000
#000000 0 1;
#X msg 298 145 info;
#N canvas 553 77 380 450 open 0;
#X obj 77 61 hradio 15 1 0 8 empty empty empty 0 -6 0 8 #fcfcfc #000000
#000000 0;
#X msg 78 81 open mouse \$1;
#X obj 121 201 hradio 15 1 0 8 empty empty empty 0 -6 0 8 #fcfcfc #000000
#000000 0;
#X msg 130 221 open keyboard \$1;
#X obj 50 13 hradio 15 1 0 8 empty empty empty 0 -6 0 8 #fcfcfc #000000
#000000 0;
#X obj 55 417 outlet;
#X obj 85 108 hradio 15 1 0 8 empty empty empty 0 -6 0 8 #fcfcfc #000000
#000000 0;
#X msg 94 128 open joystick \$1;
#X msg 59 33 open pointer \$1;
#X obj 101 155 hradio 15 1 0 8 empty empty empty 0 -6 0 8 #fcfcfc #000000
#000000 0;
#X msg 110 175 open gamepad \$1;
#X obj 137 244 hradio 15 1 0 8 empty empty empty 0 -6 0 8 #fcfcfc #000000
#000000 0;
#X msg 146 264 open keypad \$1;
#X obj 141 291 hradio 15 1 0 8 empty empty empty 0 -6 0 8 #fcfcfc #000000
#000000 0;
#X msg 150 311 open multiaxiscontroller \$1;
#X text 155 342 or just open the first one:;
#X msg 138 363 open mouse;
#X msg 159 381 open joystick;
#X connect 0 0 1 0;
#X connect 1 0 5 0;
#X connect 2 0 3 0;
#X connect 3 0 5 0;
#X connect 4 0 8 0;
#X connect 6 0 7 0;
#X connect 7 0 5 0;
#X connect 8 0 5 0;
#X connect 9 0 10 0;
#X connect 10 0 5 0;
#X connect 11 0 12 0;
#X connect 12 0 5 0;
#X connect 13 0 14 0;
#X connect 14 0 5 0;
#X connect 16 0 5 0;
#X connect 17 0 5 0;
#X restore 203 59 pd open by device type;
#N canvas 796 51 470 320 open 0;
#X text 217 82 Gravis/Destroyer Tiltpad;
#X msg 76 81 open 0x047D 0x4008;
#X msg 73 53 open 0x046d 0xc01d;
#X text 211 53 Logitech USB-PS/2 Optical Mouse;
#X obj 10 277 outlet;
#X text 9 12 You can use the hex values of the USB vendor and product
IDs (it is not case sensitive):;
#X text 221 111 Overtone CUI v1.0;
#X msg 80 110 open 0x1043 0x0015;
#X msg 83 136 open 0x06a3 0xff12;
#X text 221 134 Saitek Cyborgforce;
#X connect 1 0 4 0;
#X connect 2 0 4 0;
#X connect 7 0 4 0;
#X connect 8 0 4 0;
#X restore 174 37 pd open by vendor/product ID;
#N canvas 114 93 467 346 test 0;
#X obj 144 45 inlet;
#X obj 88 104 route DESKTOP;
#X obj 87 158 route DESKTOP57;
#X obj 70 207 bng 15 250 50 0 empty empty empty 0 -6 0 8 #fcfcfc #000000
#000000;
#X floatatom 95 212 5 0 0 0 - - - 0;
#X obj 148 215 spigot;
#X obj 146 256 print test;
#X obj 189 192 tgl 15 0 empty empty empty 0 -6 0 8 #fcfcfc #000000
#000000 0 1;
#X obj 292 122 spigot;
#X obj 290 163 print test;
#X obj 333 99 tgl 15 0 empty empty empty 0 -6 0 8 #fcfcfc #000000 #000000
0 1;
#X connect 0 0 1 0;
#X connect 0 0 8 0;
#X connect 1 0 2 0;
#X connect 2 0 3 0;
#X connect 2 0 4 0;
#X connect 2 0 5 0;
#X connect 5 0 6 0;
#X connect 7 0 5 1;
#X connect 8 0 9 0;
#X connect 10 0 8 1;
#X restore 197 303 pd test;
#X text 69 533 (C) Copyright 2004 Hans-Christoph Steiner <hans@eds.org>
;
#X obj 249 300 pddp/print;
#N canvas 162 133 570 420 serin 0;
#X obj 286 61 cnv 15 30 15 empty \$0-open-canvas 0 4 8 0 14 #e0e0e0
#000000 0;
#X obj 60 61 hradio 15 1 1 15 empty empty empty 0 -6 0 8 #d8fcd8 #000000
#000000 0;
#X obj 60 13 inlet;
#X msg 200 202 label \$1;
#X obj 200 180 makefilename %d;
#X obj 59 108 int;
#X obj 59 337 outlet;
#X msg 201 306 set \$1 \$2;
#X obj 59 266 trigger bang anything;
#X obj 201 286 list;
#X msg 60 210 open \$1;
#X obj 200 225 send \$0-open-canvas;
#X connect 1 0 5 0;
#X connect 2 0 1 0;
#X connect 3 0 11 0;
#X connect 4 0 3 0;
#X connect 5 0 4 0;
#X connect 5 0 10 0;
#X connect 7 0 6 0;
#X connect 8 0 6 0;
#X connect 8 1 9 0;
#X connect 9 0 7 0;
#X connect 10 0 8 0;
#X coords 0 -1 1 1 257 17 1 60 60;
#X restore 262 92 pd serin;
#N canvas 504 253 494 344 META 0;
#X text 12 145 HELP_PATCH_AUTHORS "pd meta" information added by Jonathan
Wilkes for Pd version 0.42.;
#X text 12 25 LICENSE GPL;
#X text 12 125 AUTHOR Hans-Christoph Steiner;
#X text 12 65 INLET_0;
#X text 12 85 OUTLET_0;
#X text 12 105 OUTLET_1;
#X text 12 5 KEYWORDS control user_input;
#X text 12 45 DESCRIPTION;
#X restore 657 523 pd META;
#X msg 262 114 open 0;
#X text 437 141 comment;
#X text 435 117 comment;
#X text 437 162 comment;
#X msg 792 195 send /test 80;
#X obj 893 707 udpsend;
#X msg 1106 406 connect 127.0.0.1 57120;
#X obj 899 782 tgl 35 0 empty empty empty 17 7 0 10 #00ff04 #000000
#000000 0 1;
#X msg 1086 350 66;
#X obj 955 453 packOSC;
#X obj 730 13 import mrpeach;
#X obj 859 14 import OSC;
#X msg 1074 479 66;
#X obj 1145 883 netsend -u;
#X msg 1115 569 connect 127.0.0.1 57120;
#X msg 1297 768 disconnect;
#X msg 1184 467 disconnect;
#X msg 1312 526 send /test \$1;
#X floatatom 1573 572 5 0 0 0 - - - 0;
#X obj 1508 375 metro 1000;
#X obj 1534 232 tgl 15 0 empty empty empty 17 7 0 10 #fcfcfc #000000
#000000 0 1;
#X obj 1391 621 oscformat /test;
#X obj 1302 668 list prepend send;
#X obj 1272 717 list trim;
#X obj 1166 784 packOSC;
#X obj 752 666 packOSC;
#X msg 671 605 prefix /test;
#X msg 832 584 5 6 7;
#X connect 3 0 20 0;
#X connect 8 0 9 1;
#X connect 9 0 8 0;
#X connect 10 0 9 0;
#X connect 11 0 20 0;
#X connect 12 0 20 0;
#X connect 14 0 56 0;
#X connect 14 1 25 0;
#X connect 14 2 29 0;
#X connect 14 3 10 0;
#X connect 17 0 18 0;
#X connect 17 1 31 0;
#X connect 17 2 33 0;
#X connect 17 3 35 0;
#X connect 18 0 30 0;
#X connect 19 0 20 0;
#X connect 20 0 14 0;
#X connect 20 0 27 0;
#X connect 20 0 62 0;
#X connect 20 0 64 0;
#X connect 25 0 0 0;
#X connect 25 1 1 0;
#X connect 25 2 16 0;
#X connect 25 3 26 0;
#X connect 27 0 6 0;
#X connect 27 1 5 0;
#X connect 27 2 4 0;
#X connect 29 0 2 0;
#X connect 29 1 37 0;
#X connect 29 2 38 0;
#X connect 29 3 39 0;
#X connect 29 4 40 0;
#X connect 29 5 41 0;
#X connect 29 6 42 0;
#X connect 29 7 17 0;
#X connect 31 0 32 0;
#X connect 33 0 34 0;
#X connect 35 0 36 0;
#X connect 56 0 15 0;
#X connect 56 1 43 0;
#X connect 56 2 44 0;
#X connect 56 3 45 0;
#X connect 56 4 46 0;
#X connect 56 5 47 0;
#X connect 56 6 48 0;
#X connect 56 7 49 0;
#X connect 56 8 50 0;
#X connect 56 9 51 0;
#X connect 56 10 52 0;
#X connect 56 11 53 0;
#X connect 56 12 54 0;
#X connect 56 13 55 0;
#X connect 56 14 57 0;
#X connect 56 15 58 0;
#X connect 59 0 20 0;
#X connect 60 0 20 0;
#X connect 61 0 20 0;
#X connect 65 0 67 0;
#X connect 67 0 20 0;
#X connect 72 0 74 0;
#X connect 73 0 72 0;
#X connect 75 0 76 0;
#X connect 76 0 72 0;
#X connect 79 0 72 0;
#X connect 81 0 80 0;
#X connect 82 0 80 0;
#X connect 83 0 72 0;
#X connect 85 0 88 0;
#X connect 86 0 85 0;
#X connect 87 0 86 0;
#X connect 88 0 89 0;
#X connect 89 0 90 0;
#X connect 90 0 91 0;
#X connect 91 0 80 0;
#X connect 92 0 72 0;
#X connect 93 0 92 0;
#X connect 94 0 92 0;
